<?xml version="1.0" encoding="UTF-8"?> <svg xmlns="http://www.w3.org/2000/svg" xmlns:xlink="http://www.w3.org/1999/xlink" xml:space="preserve" width="50mm" height="11mm" version="1.1" style="shape-rendering:geometricPrecision; text-rendering:geometricPrecision; image-rendering:optimizeQuality; fill-rule:evenodd; clip-rule:evenodd" viewBox="0 0 5000 1100"> <defs> <style type="text/css"> .fil0 {fill:#263F3F} .fil1 {fill:#F26522} </style> </defs> <g id="Layer_x0020_1"> <metadata id="CorelCorpID_0Corel-Layer"></metadata> <g id="_956291760"> <g> <path class="fil0" d="M4867 231c0,-72 -56,-89 -123,-89l-104 0 0 178 104 0c67,0 123,-19 123,-89zm-2971 -28c0,-47 -35,-69 -92,-69l-124 0 0 138 131 0c49,0 85,-22 85,-69l0 0zm23 246c0,-64 -51,-78 -103,-78l-137 0 0 155 130 0c58,0 110,-12 110,-77l0 0zm-369 -421l265 0c129,0 210,50 210,153 0,70 -38,114 -92,132 60,17 116,61 116,150 0,137 -132,168 -238,168l-261 0 0 -603zm595 0l427 0 0 114 -297 0 0 128 271 0 0 113 -271 0 0 135 303 0 0 113 -433 0 0 -603zm665 603l-130 0 0 -603 130 0 0 240 98 0 153 -240 145 0 -197 294 208 309 -144 0 -165 -246 -98 0 0 246zm433 -603l502 0 0 117 -186 0 0 486 -129 0 0 -486 -187 0 0 -117zm1037 302c0,-106 -64,-194 -189,-194 -126,0 -190,88 -190,194 0,106 63,194 190,194 126,0 189,-88 189,-194zm-512 0c0,-164 108,-314 323,-314 215,0 322,150 322,314 0,164 -107,313 -322,313 -215,0 -323,-149 -323,-313zm742 -302l228 0c147,0 262,47 262,203 0,156 -115,202 -262,202l-98 0 0 198 -130 0 0 -603z"></path> <path class="fil0" d="M4848 987l-39 0 0 -198 45 0 0 129 107 -129 39 0 0 198 -45 0 0 -130 -107 130zm-3255 0l-45 0 0 -198 150 0 0 39 -105 0 0 159zm313 -98c0,-40 -26,-67 -62,-67 -31,0 -55,20 -64,42l0 49c9,22 33,42 64,42 36,0 62,-27 62,-66l0 0zm-131 -69c16,-19 40,-37 77,-37 60,0 99,48 99,106 0,57 -39,105 -99,105 -35,0 -58,-15 -72,-31l0 118 -45 0 0 -292 40 0 0 31 0 0zm308 119l59 -150 47 0 -94 226c-22,51 -50,69 -81,69 -9,0 -17,-2 -26,-4l0 -37c7,2 14,3 20,3 22,0 38,-16 50,-47l4 -9 -95 -200 48 0 68 149 0 0zm189 48l-45 0 0 -198 191 0 0 198 -45 0 0 -159 -101 0 0 159zm250 0l-45 0 0 -198 188 0 0 198 -44 0 0 -159 -99 0 0 159zm287 -90c-25,0 -51,7 -51,32 0,20 17,30 37,30 21,0 42,-8 58,-24l0 -33c-12,-3 -29,-5 -43,-5l-1 0zm88 45c0,11 7,14 15,14 4,0 9,-1 13,-2l0 32c-8,3 -18,4 -28,4 -19,0 -33,-6 -40,-23 -20,16 -44,26 -75,26 -36,0 -70,-20 -70,-61 0,-51 47,-67 89,-67 17,0 36,3 52,6l0 -7c0,-25 -19,-42 -53,-42 -29,0 -54,7 -71,15l0 -41c15,-5 44,-13 76,-13 56,0 92,27 92,87l0 72zm213 45l-44 0 0 -198 44 0 0 79 33 0 58 -79 51 0 -73 98 81 100 -52 0 -65 -82 -33 0 0 82zm333 -99c0,-39 -26,-64 -63,-64 -36,0 -63,25 -63,64 0,39 26,64 63,64 38,0 63,-25 63,-64zm-171 0c0,-69 53,-105 108,-105 56,0 108,36 108,105 0,69 -52,105 -108,105 -56,0 -108,-36 -108,-105zm306 99l-43 0 0 -198 46 0 68 104 69 -104 46 0 0 198 -44 0 0 -134 -57 86 -27 0 -58 -86 0 134zm289 0l-44 0 0 -198 188 0 0 198 -44 0 0 -159 -100 0 0 159zm288 -90c-25,0 -52,7 -52,32 0,20 18,30 38,30 21,0 42,-8 58,-24l0 -33c-13,-3 -29,-5 -44,-5l0 0zm88 45c0,11 6,14 14,14 5,0 10,-1 14,-2l0 32c-8,3 -19,4 -29,4 -18,0 -32,-6 -39,-23 -20,16 -44,26 -75,26 -37,0 -70,-20 -70,-61 0,-51 47,-67 89,-67 17,0 36,3 52,6l0 -7c0,-25 -19,-42 -53,-42 -29,0 -54,7 -72,15l0 -41c16,-5 45,-13 77,-13 56,0 92,27 92,87l0 72zm110 45l-45 0 0 -198 45 0 0 80 101 0 0 -80 45 0 0 198 -45 0 0 -80 -101 0 0 80zm244 0l-38 0 0 -198 45 0 0 129 107 -129 39 0 0 198 -45 0 0 -129 -108 129zm369 -243c-19,12 -39,17 -61,17 -23,0 -43,-5 -62,-17l0 -36c22,13 41,17 62,17 21,0 39,-4 61,-17l0 36z"></path> </g> <g> <polygon class="fil0" points="1007,211 782,211 671,404 783,599 "></polygon> <polygon class="fil1" points="447,16 560,211 1007,211 1119,16 "></polygon> <polygon class="fil0" points="224,16 0,16 558,987 670,792 "></polygon> </g> </g> </g> </svg> 